<?xml version="1.0" encoding="utf-8"?>
<!-- Generator: Adobe Illustrator 24.3.0, SVG Export Plug-In . SVG Version: 6.00 Build 0)  -->
<svg version="1.1" id="Layer_1" xmlns="http://www.w3.org/2000/svg" xmlns:xlink="http://www.w3.org/1999/xlink" x="0px" y="0px"
	 viewBox="0 0 44.5 53.4" style="enable-background:new 0 0 44.5 53.4;" xml:space="preserve">
<style type="text/css">
	.st0{fill:#999999;}
</style>
<g id="csv" transform="translate(-854.5 -500.091)">
	<g id="Path_18072">
		<path class="st0" d="M867,542.5c-4.2,0-4.2-4.9-4.2-6.9s0-6.9,4.2-6.9c2.1,0,3.4,1.2,3.9,3.6c0.1,0.5-0.2,1.1-0.8,1.2
			c-0.5,0.1-1.1-0.2-1.2-0.8c-0.4-1.6-1-2-1.9-2c-1,0-2.2,0.4-2.2,4.9s1.1,4.9,2.2,4.9c0.9,0,1.6-0.3,1.9-2c0.1-0.5,0.6-0.9,1.2-0.8
			c0.5,0.1,0.9,0.6,0.8,1.2C870.2,541.9,868.4,542.5,867,542.5z"/>
	</g>
	<g id="Path_18073">
		<path class="st0" d="M887.1,542.3L887.1,542.3c-0.4,0-0.8-0.3-1-0.7l-3.3-11.6c-0.1-0.5,0.2-1.1,0.7-1.2c0.5-0.1,1.1,0.2,1.2,0.7
			l2.3,8.2l2.3-8.2c0.1-0.5,0.7-0.8,1.2-0.7c0.5,0.2,0.8,0.7,0.7,1.2l-3.3,11.6C887.9,542,887.5,542.3,887.1,542.3z"/>
	</g>
	<g id="Path_18074">
		<path class="st0" d="M877.5,542.5c-1,0-1.9-0.4-2.7-1.1c-0.7-0.7-1.1-1.7-1.1-2.7c0-0.6,0.4-1,1-1c0,0,0,0,0,0c0.6,0,1,0.4,1,1
			c0,0.5,0.2,0.9,0.5,1.3c0.3,0.3,0.8,0.5,1.2,0.5c0,0,0,0,0,0c0.5,0,0.9-0.2,1.3-0.5s0.5-0.8,0.5-1.3c0,0,0-0.1,0-0.2
			c0-1.2-0.8-1.7-1.9-2l-0.2-0.1c-2.9-0.7-3.5-2.5-3.5-3.9c-0.1-0.9,0.3-1.9,0.9-2.7c0.7-0.8,1.6-1.2,2.6-1.3c2.1-0.1,3.9,1.4,4,3.5
			c0,0.1,0,0.2,0,0.3c0,0.6-0.4,1-1,1s-1-0.4-1-1l0-0.1c-0.1-1-0.9-1.7-1.9-1.6c-0.5,0-0.9,0.2-1.2,0.6c-0.3,0.4-0.5,0.8-0.4,1.3
			c0,1.1,0.6,1.7,1.9,2l0.3,0.1c2.2,0.6,3.3,1.9,3.3,3.9c0,0,0,0.1,0,0.2C881.3,540.8,879.6,542.5,877.5,542.5
			C877.5,542.5,877.5,542.5,877.5,542.5z"/>
	</g>
	<g id="Group_12412" transform="translate(855.5 501.091)">
		<g id="Path_13988">
			<path class="st0" d="M42.5,52.4H0c-0.6,0-1-0.4-1-1V0c0-0.6,0.4-1,1-1h29.1c0.3,0,0.5,0.1,0.7,0.3l13.4,13.4
				c0.2,0.2,0.3,0.4,0.3,0.7v38C43.5,52,43.1,52.4,42.5,52.4z M1,50.4h40.5V13.8L28.7,1H1V50.4z"/>
		</g>
		<g id="Path_13989">
			<path class="st0" d="M42.5,14.4H29.1c-0.6,0-1-0.4-1-1V0c0-0.6,0.4-1,1-1s1,0.4,1,1v12.4h12.4c0.6,0,1,0.4,1,1
				S43.1,14.4,42.5,14.4z"/>
		</g>
	</g>
</g>
</svg>
