<svg xmlns="http://www.w3.org/2000/svg" xmlns:xlink="http://www.w3.org/1999/xlink" viewBox="0 0 523.71 113.53"><defs><style>.cls-1{fill:none;}.cls-2{clip-path:url(#clip-path);}.cls-3{fill:#043673;}</style><clipPath id="clip-path" transform="translate(-194 -371.47)"><rect class="cls-1" width="1190.55" height="841.89"/></clipPath></defs><g id="Layer_2" data-name="Layer 2"><g id="Layer_1-2" data-name="Layer 1"><g class="cls-2"><path class="cls-3" d="M229.45,476.94c-.48.39-1.09-.31-.66-.76,8.24-8.33,25.73-26.78,56.28-33.29,28.29-6,36.49,13.84,14.18,30.86-7,5.35-33.08,20.7-60.68,2.63-.48-.32-.22-.92.36-.94,13.16-.42,25.95.45,42.45-14.29a.51.51,0,0,1,.84.51c-1.16,3.34-4.51,10.47-16.16,17.25-.49.28-.21.85.35.92,10.51,1.35,40.61-14.63,37-27.31-3.93-13.89-50.35,5.32-74,24.42" transform="translate(-194 -371.47)"/></g><g class="cls-2"><path class="cls-3" d="M263.19,393.13c-7.24-6.48-20.91,1.23-24.1,3.77a.44.44,0,0,1-.7-.5A38.28,38.28,0,0,0,240,371.8a.44.44,0,0,0-.87.12c0,9-3.86,23.68-7.6,29.75-1.43,2.31-11.14,12.3-14.74,24.8a.47.47,0,0,1-.92,0l.48-11c0-.47-.79-.58-.89-.12a109.92,109.92,0,0,0-3,31.37.46.46,0,0,0,.8.27c8.38-8.74,8.9-10.54,15.24-16.2,5.42-4.83,1.89-9,0-10.42a.43.43,0,0,1-.08-.59c2.89-4.06,14.91-23.12,25.93-17.89,12.71,6-39.66,79-43.59,77.39-11.58-4.68-16.47,2.66-16.81,5a.45.45,0,0,0,.67.47,15.33,15.33,0,0,1,12.39-.51c7.14,2.68,11.93-2.41,14.4-5.41,1.75-2.11,58.23-70.93,41.72-85.7" transform="translate(-194 -371.47)"/></g><g class="cls-2"><path class="cls-3" d="M247.72,388.17a.41.41,0,0,1-.4-.68c3.33-3.5,23.32-20.79,47.47-14.75,38.18,9.53,36.72,53.52,24.25,76.7-.24.44-1,.24-.83-.24,5.45-17,6.54-55.24-26.62-65-.51-.15-.65.66-.22.8,9.1,2.9,23.46,25.51,1.84,51.72-.32.39-.95.17-.8-.32,3.54-11.17,11.81-39.78-12.91-48.59a.42.42,0,0,0-.55.55c2.27,5.06,14.41,33.36-35.69,68.61-.44.3-1-.26-.58-.63,8.56-8.39,26.57-32.67,28.88-49.25,3.17-22.84-12.18-24.46-23.84-18.92" transform="translate(-194 -371.47)"/></g><g class="cls-2"><path class="cls-3" d="M355.28,402.5a47.87,47.87,0,0,1,7.77-.57c12.36,0,19.17,5.61,19.17,15.79,0,14.78-12.51,25.92-29.11,25.92a39.86,39.86,0,0,1-7.58-.6l-.14,0,9.8-40.49Zm8-8A86.62,86.62,0,0,0,347.54,396a.67.67,0,0,0-.55.52l-12.31,51.92a.69.69,0,0,0,.53.84,95.06,95.06,0,0,0,18.62,1.77c21,0,38.13-15.15,38.13-33.77,0-14.72-10.2-22.83-28.73-22.83" transform="translate(-194 -371.47)"/></g><g class="cls-2"><path class="cls-3" d="M487.93,415.94a26.73,26.73,0,0,1,7.42,1.16l.15,0-.06.14a10.94,10.94,0,0,0-.68,1.9l-5.43,22.75-.05,0a15.79,15.79,0,0,1-7.17,1.76c-6.91,0-11.2-4.14-11.2-10.81a16.84,16.84,0,0,1,17-17m17.46-3.5h0a49,49,0,0,0-16.65-3.39c-15.67,0-27.48,10.43-27.48,24.26,0,9.8,7.76,16.9,18.44,16.9a23.53,23.53,0,0,0,7.83-1.33l.25-.09-.07.26c-.28,1-.61,2-.89,2.92-.14.43-.24.77-.28.9-1.89,5.62-6,8.35-12.57,8.35A32.75,32.75,0,0,1,463.16,459a.69.69,0,0,0-.83.33l-2.64,5.1a.71.71,0,0,0,.37,1A40.61,40.61,0,0,0,473.88,468c11.39,0,19.45-5.24,21.56-14l8.68-36a30.61,30.61,0,0,1,1.36-3.94l.3-.75a.72.72,0,0,0,0-.54.7.7,0,0,0-.38-.36" transform="translate(-194 -371.47)"/></g><g class="cls-2"><path class="cls-3" d="M526.8,444.2c-7.54,0-10.22-5.95-10.22-11,0-8.32,6.45-17.22,16-17.22,7.54,0,10.21,5.95,10.21,11,0,8.32-6.44,17.22-16,17.22M533,409.05c-14.37,0-26.05,10.89-26.05,24.27,0,10.63,7.84,17.77,19.51,17.77,14.36,0,26-10.89,26-24.27,0-10.62-7.84-17.77-19.51-17.77" transform="translate(-194 -371.47)"/></g><g class="cls-2"><path class="cls-3" d="M582.68,409.05c-5.73,0-12.24,1.14-20.47,3.59a.67.67,0,0,0-.49.61l-.05.61a37.5,37.5,0,0,1-.55,4.49l-7.42,31a.72.72,0,0,0,.13.6.67.67,0,0,0,.54.26h7.54a.69.69,0,0,0,.67-.52l7.28-29.85a16.2,16.2,0,0,0,.25-1.92v-.09l.09,0a37.34,37.34,0,0,1,10.59-1.86c5.29,0,8,2,8,5.82a11.78,11.78,0,0,1-.45,3.1l-5.8,24.49a.72.72,0,0,0,.13.6.7.7,0,0,0,.54.26h7.54a.69.69,0,0,0,.67-.53l5.76-24.12a22.36,22.36,0,0,0,.72-4.83c0-7.86-5-11.68-15.21-11.68" transform="translate(-194 -371.47)"/></g><g class="cls-2"><path class="cls-3" d="M422.59,416.52a.69.69,0,0,0,.82-.51l1.43-5.8a.76.76,0,0,0-.1-.57.73.73,0,0,0-.48-.3,33.61,33.61,0,0,0-4.25-.29c-5.6,0-11.72,1.3-19.26,4.07a.68.68,0,0,0-.45.58c-.14,1.37-.41,3.85-.69,5.11l-7.33,30.54a.72.72,0,0,0,.13.6.66.66,0,0,0,.54.26h7.54a.69.69,0,0,0,.67-.53l7-29.83c.11-.47.19-1.1.25-1.58l.08-.59.07,0A33.61,33.61,0,0,1,418.4,416a17.32,17.32,0,0,1,4.19.5" transform="translate(-194 -371.47)"/></g><g class="cls-2"><path class="cls-3" d="M435,444.2c-4.09,0-9-.87-9-5,0-4.41,6.42-5.69,12.65-6.94a38.2,38.2,0,0,0,7.87-2.11l.26-.13-2.67,11a13.42,13.42,0,0,0-.25,2v.1l-.1,0A35.11,35.11,0,0,1,435,444.2m7.25-35.15a51.31,51.31,0,0,0-11.88,1.65.67.67,0,0,0-.5.51l-1.45,5.92a.7.7,0,0,0,.19.68.68.68,0,0,0,.68.15,41.73,41.73,0,0,1,12.07-2c3.43,0,7.44,1.17,7.44,4.47,0,3.48-5.65,4.54-12.18,5.76-9,1.68-20.24,3.77-20.24,13.71,0,7.13,6.56,11.21,18,11.21a65.35,65.35,0,0,0,17.33-2.56.69.69,0,0,0,.49-.64l0-.69a21.3,21.3,0,0,1,.49-4.38l4.3-17.59a22.19,22.19,0,0,0,.63-4.89c0-8.32-7.95-11.29-15.39-11.29" transform="translate(-194 -371.47)"/></g><g class="cls-2"><path class="cls-3" d="M693.85,403.77c3.46,0,6.17-2.21,6.17-5,0-2.46-2.28-4.39-5.18-4.39-3.36,0-6.08,2.33-6.08,5.19,0,2.45,2.14,4.23,5.09,4.23" transform="translate(-194 -371.47)"/></g><g class="cls-2"><path class="cls-3" d="M667.81,418.12c0,12.37-7.75,25.52-22.12,25.52-10.16,0-16.22-6.08-16.22-16.26,0-12.34,7.79-25.45,22.22-25.45,10.09,0,16.12,6.05,16.12,16.19m-15.68-23.63c-21,0-32.4,17.19-32.4,33.36,0,14.12,10,23.24,25.42,23.24,21,0,32.4-17.23,32.4-33.45,0-14.06-10-23.15-25.42-23.15" transform="translate(-194 -371.47)"/></g><g class="cls-2"><path class="cls-3" d="M696,410.19a.68.68,0,0,0-.54-.27h-7.54a.68.68,0,0,0-.67.54l-9.33,38.89a.72.72,0,0,0,.13.6.67.67,0,0,0,.54.26h7.54a.69.69,0,0,0,.67-.53l9.33-38.89a.71.71,0,0,0-.13-.6" transform="translate(-194 -371.47)"/></g><g class="cls-2"><path class="cls-3" d="M717.56,394.62a.66.66,0,0,0-.53-.27h-7.64a.69.69,0,0,0-.67.53l-13,54.47a.75.75,0,0,0,.12.6.7.7,0,0,0,.54.26H704a.68.68,0,0,0,.67-.53l13-54.47a.69.69,0,0,0-.13-.59" transform="translate(-194 -371.47)"/></g></g></g></svg>