<svg xmlns="http://www.w3.org/2000/svg" xmlns:xlink="http://www.w3.org/1999/xlink" viewBox="0 0 527.16 329.99"><defs><style>.cls-1{fill:none;}.cls-2{clip-path:url(#clip-path);}.cls-3{fill:#043673;}</style><clipPath id="clip-path" transform="translate(-192.28 -261.62)"><rect class="cls-1" width="1190.55" height="841.89"/></clipPath></defs><g id="Layer_2" data-name="Layer 2"><g id="Layer_1-2" data-name="Layer 1"><g class="cls-2"><path class="cls-3" d="M394.14,476.14a1,1,0,0,1-1.34-1.54c16.75-17,52.31-54.47,114.47-67.72,57.52-12.26,74.2,28.15,28.82,62.77-14.28,10.89-67.27,42.11-123.4,5.35-1-.65-.46-1.86.73-1.9,26.75-.86,52.78.91,86.33-29.07a1,1,0,0,1,1.7,1c-2.34,6.8-9.17,21.3-32.86,35.08-1,.58-.42,1.74.72,1.89,21.38,2.73,82.59-29.77,75.31-55.56-8-28.25-102.4,10.82-150.48,49.67" transform="translate(-192.28 -261.62)"/><path class="cls-3" d="M462.76,305.67c-14.73-13.18-42.53,2.51-49,7.68a.9.9,0,0,1-1.42-1,77.7,77.7,0,0,0,3.3-50,.9.9,0,0,0-1.77.23c.06,18.34-7.85,48.17-15.46,60.51-2.9,4.7-22.65,25-30,50.45a1,1,0,0,1-1.87-.08l1-22.34c-.1-.95-1.61-1.18-1.83-.24-7.55,32.28-6.58,57.33-6.08,63.81a1,1,0,0,0,1.63.54c17-17.77,18.11-21.43,31-32.94,11-9.83,3.83-18.31.06-21.2a.88.88,0,0,1-.15-1.2c5.88-8.26,30.32-47,52.75-36.38,25.83,12.26-80.67,160.63-88.68,157.39-23.54-9.51-33.5,5.43-34.19,10.22a.93.93,0,0,0,1.37,1c3.74-2.09,13.64-5.39,25.21-1,14.52,5.45,24.25-4.89,29.29-11,3.54-4.3,118.42-144.27,84.85-174.32" transform="translate(-192.28 -261.62)"/><path class="cls-3" d="M431.3,295.59a.85.85,0,0,1-.82-1.4c6.76-7.11,47.42-42.26,96.55-30,77.65,19.39,74.7,108.87,49.31,156-.48.9-2,.48-1.68-.49,11.08-34.61,13.31-112.35-54.15-132.21-1-.31-1.31,1.35-.43,1.63,18.51,5.89,47.71,51.88,3.74,105.19-.66.8-1.94.35-1.63-.64,7.19-22.72,24-80.91-26.25-98.85a.87.87,0,0,0-1.12,1.14c4.61,10.29,29.3,67.85-72.61,139.54-.88.62-1.93-.53-1.17-1.27,17.42-17.07,54-66.46,58.74-100.18,6.45-46.46-24.77-49.75-48.48-38.48" transform="translate(-192.28 -261.62)"/><path class="cls-3" d="M231.6,492a122.29,122.29,0,0,0-21.6,2.1.92.92,0,0,0-.75.7L192.3,565.14a.94.94,0,0,0,.74,1.15,133,133,0,0,0,25.62,2.38c28.93,0,52.48-20.51,52.48-45.72C271.14,503,257.09,492,231.6,492m-10.95,10.85a66.26,66.26,0,0,1,10.7-.78c17,0,26.38,7.6,26.38,21.39,0,20-17.22,35.11-40.06,35.11a56.34,56.34,0,0,1-10.43-.82l-.2,0,13.49-54.84Z" transform="translate(-192.28 -261.62)"/><path class="cls-3" d="M427.24,516.34h0a68.35,68.35,0,0,0-22.92-4.58c-21.55,0-37.81,14.12-37.81,32.85,0,13.26,10.67,22.88,25.37,22.88a33,33,0,0,0,10.78-1.8l.34-.13-.1.36c-.38,1.35-.83,2.74-1.22,4l-.38,1.22C398.7,578.7,393,582.4,384,582.4c-4.28,0-9-.94-14.87-3a.93.93,0,0,0-1.14.46l-3.63,6.89a.94.94,0,0,0,.51,1.33,56.51,56.51,0,0,0,19,3.49c15.68,0,26.77-7.11,29.67-19l11.95-48.69a39.79,39.79,0,0,1,1.88-5.33l.41-1a1,1,0,0,0-.54-1.22m-24,4.74a37.47,37.47,0,0,1,10.22,1.57l.2.06-.09.21a14.52,14.52,0,0,0-.93,2.57l-7.47,30.8-.08,0a22.06,22.06,0,0,1-9.85,2.38c-9.51,0-15.42-5.61-15.42-14.64a23,23,0,0,1,23.42-23" transform="translate(-192.28 -261.62)"/><path class="cls-3" d="M465.21,511.76c-19.77,0-35.85,14.73-35.85,32.85,0,14.39,10.79,24.06,26.85,24.06,19.77,0,35.85-14.74,35.85-32.85,0-14.39-10.79-24.06-26.85-24.06m-8.51,47.59c-10.37,0-14.06-8.06-14.06-15,0-11.26,8.87-23.31,22.07-23.31,10.38,0,14.06,8,14.06,14.95,0,11.26-8.87,23.32-22.07,23.32" transform="translate(-192.28 -261.62)"/><path class="cls-3" d="M533.61,511.76c-7.89,0-16.85,1.54-28.18,4.86a.92.92,0,0,0-.67.82l-.07.82a47.83,47.83,0,0,1-.76,6.08l-10.2,42a.94.94,0,0,0,.91,1.17H505a.93.93,0,0,0,.91-.71l10-40.41a23.64,23.64,0,0,0,.34-2.6v-.13l.12,0A52.32,52.32,0,0,1,531,521.08c7.28,0,11,2.65,11,7.88a16.44,16.44,0,0,1-.61,4.2l-8,33.17a.95.95,0,0,0,.92,1.16H544.7a.93.93,0,0,0,.92-.72l7.92-32.67a29.31,29.31,0,0,0,1-6.53c0-10.64-6.85-15.81-20.93-15.81" transform="translate(-192.28 -261.62)"/><path class="cls-3" d="M313.29,521.86a.94.94,0,0,0,1.13-.69l2-7.86a1,1,0,0,0-.14-.76.93.93,0,0,0-.66-.4,44.42,44.42,0,0,0-5.85-.39c-7.7,0-16.12,1.74-26.5,5.5a1,1,0,0,0-.62.79c-.19,1.85-.57,5.21-.94,6.91l-10.09,41.36a.94.94,0,0,0,.91,1.17h10.39a.94.94,0,0,0,.91-.72l9.66-40.4c.14-.63.25-1.49.33-2.13l.11-.81.11,0a46.56,46.56,0,0,1,13.51-2.22,24.52,24.52,0,0,1,5.78.68" transform="translate(-192.28 -261.62)"/><path class="cls-3" d="M340.36,511.76A71.87,71.87,0,0,0,324,514a.93.93,0,0,0-.69.69l-2,8a.94.94,0,0,0,1.2,1.13,58,58,0,0,1,16.61-2.74c4.72,0,10.24,1.59,10.24,6.06,0,4.71-7.77,6.14-16.76,7.79-12.41,2.28-27.85,5.11-27.85,18.57,0,9.65,9,15.17,24.76,15.17a91,91,0,0,0,23.84-3.46.94.94,0,0,0,.68-.86l0-.94a28.75,28.75,0,0,1,.66-5.94l5.92-23.81a29.76,29.76,0,0,0,.87-6.63c0-11.26-10.94-15.27-21.18-15.27m-10,47.59c-5.63,0-12.33-1.18-12.33-6.81,0-6,8.84-7.71,17.41-9.4,4.18-.83,8.13-1.61,10.83-2.86l.36-.17L343,555a18.44,18.44,0,0,0-.36,2.73v.14l-.14,0a49.44,49.44,0,0,1-12.1,1.47" transform="translate(-192.28 -261.62)"/><path class="cls-3" d="M686.6,504.6c4.77,0,8.49-3,8.49-6.81,0-3.33-3.13-5.94-7.13-5.94-4.61,0-8.37,3.15-8.37,7,0,3.32,2.95,5.73,7,5.73" transform="translate(-192.28 -261.62)"/><path class="cls-3" d="M629.19,492c-29,0-44.6,23.28-44.6,45.18,0,19.12,13.74,31.46,35,31.46,29,0,44.59-23.33,44.59-45.29,0-19-13.73-31.35-35-31.35m21.57,32c0,16.75-10.67,34.57-30.44,34.57-14,0-22.32-8.24-22.32-22,0-16.71,10.72-34.46,30.57-34.46,13.9,0,22.19,8.19,22.19,21.92" transform="translate(-192.28 -261.62)"/><path class="cls-3" d="M689.49,513.29a.93.93,0,0,0-.74-.36H678.37a.94.94,0,0,0-.92.72l-12.84,52.67a1,1,0,0,0,.92,1.17h10.38a.94.94,0,0,0,.92-.72l12.83-52.67a.94.94,0,0,0-.17-.81" transform="translate(-192.28 -261.62)"/><path class="cls-3" d="M719.24,492.21a.94.94,0,0,0-.75-.36H708a.93.93,0,0,0-.91.72l-17.83,73.76a.93.93,0,0,0,.92,1.16h10.43a.93.93,0,0,0,.91-.72L719.41,493a.92.92,0,0,0-.17-.8" transform="translate(-192.28 -261.62)"/></g></g></g></svg>