<svg  xmlns="http://www.w3.org/2000/svg" >
 <symbol id="icon-notification-active" viewBox="0 0 45 45 ">
    <path style="fill:#555555;" d="M36.24,39.14H3.75c-1.92,0-3.48-1.56-3.48-3.48s1.5601-3.48,3.48-3.48h0.71  c1.61-1.53,2.62-3.66,2.77-5.88v-7.13c0.0699-6.93,5.73-12.52,12.65-12.52c0.04,0,0.08,0,0.13,0c3.61,0.03,6.77,1.38,9.14,3.79  c2.36,2.41,3.65,5.6,3.61,8.98v6.95c0.15,2.15,1.15,4.27,2.77,5.8h0.71c1.92,0,3.48,1.56,3.48,3.48  C39.72,37.58,38.16,39.14,36.24,39.14z M3.76,34.5c-0.64,0-1.16,0.52-1.16,1.16s0.52,1.16,1.16,1.16h32.49  c0.64,0,1.16-0.52,1.16-1.16s-0.52-1.16-1.16-1.16h-1.59l-0.33-0.28c-2.26-1.95-3.6801-4.78-3.88-7.76v-7.04  c0.03-2.77-1.02-5.37-2.95-7.34c-1.9301-1.97-4.51-3.07-7.27-3.1c-0.04,0-0.0699,0-0.11,0c-5.87,0-10.5,4.57-10.55,10.23v7.18  c-0.21,3.06-1.62,5.89-3.88,7.84l-0.33,0.28h-1.6V34.5H3.76z M24.64,40.3h-9.28c0,2.56,2.08,4.64,4.64,4.64  C22.5601,44.95,24.64,42.87,24.64,40.3z"/>
    <path style="fill:#1F91F2;" d="M27.37,0.86c4.4348,0,8.03,3.5952,8.03,8.03s-3.5952,8.03-8.03,8.03s-8.03-3.5952-8.03-8.03  S22.9352,0.86,27.37,0.86z"/>
  </symbol>

  <symbol id="icon-notification" viewBox="0 0 45 45">
    <g id="Group_867" transform="translate(-1187.5 -19)">
      <g id="Path_3">
        <path class="st0" d="M1223.74,58.14h-32.49c-1.92,0-3.48-1.56-3.48-3.48s1.56-3.48,3.48-3.48h0.71c1.61-1.53,2.62-3.66,2.77-5.88    v-7.13c0.07-6.93,5.73-12.52,12.65-12.52c0.04,0,0.08,0,0.13,0c3.61,0.03,6.77,1.38,9.14,3.79c2.36,2.41,3.65,5.6,3.61,8.98v6.95    c0.15,2.15,1.15,4.27,2.77,5.8h0.71c1.92,0,3.48,1.56,3.48,3.48C1227.22,56.58,1225.66,58.14,1223.74,58.14z M1191.26,53.5    c-0.64,0-1.16,0.52-1.16,1.16s0.52,1.16,1.16,1.16h32.49c0.64,0,1.16-0.52,1.16-1.16s-0.52-1.16-1.16-1.16h-1.59l-0.33-0.28    c-2.26-1.95-3.68-4.78-3.88-7.76v-7.04c0.03-2.77-1.02-5.37-2.95-7.34c-1.93-1.97-4.51-3.07-7.27-3.1c-0.04,0-0.07,0-0.11,0    c-5.87,0-10.5,4.57-10.55,10.23v7.18c-0.21,3.06-1.62,5.89-3.88,7.84l-0.33,0.28h-1.6V53.5z"/>
      </g>
      <g id="Path_799">
        <path class="st0" d="M1212.14,59.3h-9.28c0,2.56,2.08,4.64,4.64,4.64C1210.06,63.95,1212.14,61.87,1212.14,59.3z"/>
      </g>
    </g>
  </symbol>

  </svg>
