<?xml version="1.0" encoding="utf-8"?>
<!-- Generator: Adobe Illustrator 24.3.0, SVG Export Plug-In . SVG Version: 6.00 Build 0)  -->
<svg version="1.1" id="Layer_1" xmlns="http://www.w3.org/2000/svg" xmlns:xlink="http://www.w3.org/1999/xlink" x="0px" y="0px"
	 viewBox="0 0 44.5 53.4" style="enable-background:new 0 0 44.5 53.4;" xml:space="preserve">
<style type="text/css">
	.st0{fill:#999999;}
</style>
<g id="xls" transform="translate(-661.5 -256.62)">
	<g id="Path_12945">
		<path class="st0" d="M705,310.1h-42.5c-0.6,0-1-0.4-1-1v-51.4c0-0.6,0.4-1,1-1h29.1c0.3,0,0.5,0.1,0.7,0.3l13.4,13.4
			c0.2,0.2,0.3,0.4,0.3,0.7v38C706,309.6,705.6,310.1,705,310.1z M663.5,308.1H704v-36.6l-12.8-12.8h-27.7V308.1z"/>
	</g>
	<g id="Path_12946">
		<path class="st0" d="M705,271.8h-13.2c-0.6,0-1-0.4-1-1v-13.2c0-0.6,0.4-1,1-1s1,0.4,1,1v12.2H705c0.6,0,1,0.4,1,1
			S705.6,271.8,705,271.8z"/>
	</g>
	<g id="Path_12947">
		<path class="st0" d="M688.2,299.3h-5.5c-0.6,0-1-0.4-1-1v-11.4c0-0.6,0.4-1,1-1s1,0.4,1,1v10.4h4.5c0.6,0,1,0.4,1,1
			S688.7,299.3,688.2,299.3z"/>
	</g>
	<g id="Group_9364" transform="translate(670.91 286.843)">
		<g id="Line_8558">
			<path class="st0" d="M5.5,12.4c-0.4,0-0.7-0.2-0.9-0.6L-0.9,0.4c-0.2-0.5,0-1.1,0.5-1.3c0.5-0.2,1.1,0,1.3,0.5L6.4,11
				c0.2,0.5,0,1.1-0.5,1.3C5.8,12.4,5.6,12.4,5.5,12.4z"/>
		</g>
		<g id="Line_8559">
			<path class="st0" d="M0,12.4c-0.1,0-0.3,0-0.4-0.1c-0.5-0.2-0.7-0.8-0.5-1.3L4.6-0.4c0.2-0.5,0.8-0.7,1.3-0.5
				c0.5,0.2,0.7,0.8,0.5,1.3L0.9,11.8C0.7,12.2,0.4,12.4,0,12.4z"/>
		</g>
	</g>
	<g id="Path_12948">
		<path class="st0" d="M695.3,299.5c-1,0-1.9-0.4-2.6-1.1c-0.7-0.7-1.1-1.6-1.1-2.6c0-0.6,0.4-1,1-1h0c0.6,0,1,0.4,1,1
			c0,0.5,0.2,0.9,0.5,1.2c0.3,0.3,0.8,0.5,1.2,0.5c0,0,0,0,0,0c0.5,0,0.9-0.2,1.2-0.5s0.5-0.8,0.5-1.2l0-0.1c0-1.1-0.5-1.6-1.9-2
			l-0.1,0c-2.9-0.7-3.5-2.5-3.5-3.9c-0.1-2.1,1.6-3.8,3.7-3.9c2.1,0.1,3.7,1.7,3.8,3.7c0,0.6-0.4,1-1,1c-0.5,0-1-0.4-1-1
			c0-1-0.8-1.7-1.8-1.8c-0.9,0-1.7,0.9-1.7,1.9c0,1.1,0.6,1.6,1.9,2c0,0,0.1,0,0.1,0c2.9,0.7,3.5,2.5,3.5,3.9c0,0,0,0.1,0,0.2
			c0,1-0.4,1.9-1.1,2.6C697.3,299.1,696.3,299.5,695.3,299.5C695.4,299.5,695.3,299.5,695.3,299.5z"/>
	</g>
</g>
</svg>
